<svg width="151" height="151" viewBox="0 0 151 151" fill="none" xmlns="http://www.w3.org/2000/svg">
<path d="M111.124 47.9284C107.956 47.9284 104.962 48.6745 102.308 50.0006C102.078 37.4767 91.7532 27.4284 79.0932 27.4284C69.7445 27.4284 61.6693 32.9078 57.992 40.8172C55.8217 39.9225 53.4339 39.4284 50.937 39.4284C41.2001 39.4284 33.1245 46.9414 33.1245 56.4284C33.1245 56.4425 33.1245 56.4565 33.1245 56.4706C25.8568 58.7035 20.3745 64.3282 20.3745 71.4284C20.3745 80.6812 29.6852 87.4284 40.1245 87.4284H75.6245H111.124C122.032 87.4284 130.874 78.586 130.874 67.6784C130.874 56.7708 122.032 47.9284 111.124 47.9284Z" fill="#D9D9D9" stroke="#8B8B8B" stroke-width="4"/>
<line x1="44.5677" y1="93.0769" x2="44.3379" y2="94.0501" stroke="#32AED6" stroke-width="3" stroke-linecap="round"/>
<line x1="60.1388" y1="93.0769" x2="59.9091" y2="94.0501" stroke="#32AED6" stroke-width="3" stroke-linecap="round"/>
<line x1="75.71" y1="93.0769" x2="75.4802" y2="94.0501" stroke="#32AED6" stroke-width="3" stroke-linecap="round"/>
<line x1="91.2809" y1="93.0769" x2="91.0511" y2="94.0501" stroke="#32AED6" stroke-width="3" stroke-linecap="round"/>
<line x1="106.852" y1="93.0769" x2="106.622" y2="94.0501" stroke="#32AED6" stroke-width="3" stroke-linecap="round"/>
<line x1="36.6011" y1="99.169" x2="36.3713" y2="100.142" stroke="#32AED6" stroke-width="3" stroke-linecap="round"/>
<line x1="52.1723" y1="99.169" x2="51.9425" y2="100.142" stroke="#32AED6" stroke-width="3" stroke-linecap="round"/>
<line x1="67.7434" y1="99.169" x2="67.5136" y2="100.142" stroke="#32AED6" stroke-width="3" stroke-linecap="round"/>
<line x1="83.3143" y1="99.169" x2="83.0845" y2="100.142" stroke="#32AED6" stroke-width="3" stroke-linecap="round"/>
<line x1="98.8852" y1="99.169" x2="98.6554" y2="100.142" stroke="#32AED6" stroke-width="3" stroke-linecap="round"/>
<line x1="43.6486" y1="103.062" x2="43.4188" y2="104.035" stroke="#32AED6" stroke-width="3" stroke-linecap="round"/>
<line x1="59.2197" y1="103.062" x2="58.9899" y2="104.035" stroke="#32AED6" stroke-width="3" stroke-linecap="round"/>
<line x1="74.7908" y1="103.062" x2="74.5611" y2="104.035" stroke="#32AED6" stroke-width="3" stroke-linecap="round"/>
<line x1="90.3617" y1="103.062" x2="90.132" y2="104.035" stroke="#32AED6" stroke-width="3" stroke-linecap="round"/>
<line x1="105.933" y1="103.062" x2="105.703" y2="104.035" stroke="#32AED6" stroke-width="3" stroke-linecap="round"/>
<line x1="35.682" y1="109.154" x2="35.4522" y2="110.127" stroke="#32AED6" stroke-width="3" stroke-linecap="round"/>
<line x1="51.2531" y1="109.154" x2="51.0233" y2="110.127" stroke="#32AED6" stroke-width="3" stroke-linecap="round"/>
<line x1="66.8243" y1="109.154" x2="66.5945" y2="110.127" stroke="#32AED6" stroke-width="3" stroke-linecap="round"/>
<line x1="82.3952" y1="109.154" x2="82.1654" y2="110.127" stroke="#32AED6" stroke-width="3" stroke-linecap="round"/>
<line x1="97.9661" y1="109.154" x2="97.7363" y2="110.127" stroke="#32AED6" stroke-width="3" stroke-linecap="round"/>
<line x1="43.189" y1="115.246" x2="42.9592" y2="116.219" stroke="#32AED6" stroke-width="3" stroke-linecap="round"/>
<line x1="58.7601" y1="115.246" x2="58.5303" y2="116.219" stroke="#32AED6" stroke-width="3" stroke-linecap="round"/>
<line x1="74.3313" y1="115.246" x2="74.1015" y2="116.219" stroke="#32AED6" stroke-width="3" stroke-linecap="round"/>
<line x1="89.9022" y1="115.246" x2="89.6724" y2="116.219" stroke="#32AED6" stroke-width="3" stroke-linecap="round"/>
<line x1="105.473" y1="115.246" x2="105.243" y2="116.219" stroke="#32AED6" stroke-width="3" stroke-linecap="round"/>
<line x1="35.2224" y1="121.338" x2="34.9926" y2="122.311" stroke="#32AED6" stroke-width="3" stroke-linecap="round"/>
<line x1="50.7936" y1="121.338" x2="50.5638" y2="122.311" stroke="#32AED6" stroke-width="3" stroke-linecap="round"/>
<line x1="66.3647" y1="121.338" x2="66.1349" y2="122.311" stroke="#32AED6" stroke-width="3" stroke-linecap="round"/>
<line x1="81.9356" y1="121.338" x2="81.7058" y2="122.311" stroke="#32AED6" stroke-width="3" stroke-linecap="round"/>
<line x1="97.5065" y1="121.338" x2="97.2767" y2="122.311" stroke="#32AED6" stroke-width="3" stroke-linecap="round"/>
</svg>
