<svg width="151" height="151" viewBox="0 0 151 151" fill="none" xmlns="http://www.w3.org/2000/svg">
<circle cx="75.0372" cy="75.5077" r="27.5" fill="#FFC90C"/>
<path d="M75.0756 21.5119L85.4679 44.0119H64.6833L75.0756 21.5119Z" fill="#FE7A00"/>
<path d="M74.9989 129.503L64.6066 107.003H85.3912L74.9989 129.503Z" fill="#FE7A00"/>
<path d="M43.3304 31.8016L64.9631 43.896L48.148 56.1129L43.3304 31.8016Z" fill="#FE7A00"/>
<path d="M106.744 119.214L85.1114 107.119L101.926 94.9024L106.744 119.214Z" fill="#FE7A00"/>
<path d="M23.6961 58.7856L48.3062 55.8548L41.8834 75.6221L23.6961 58.7856Z" fill="#FE7A00"/>
<path d="M126.378 92.2298L101.768 95.1606L108.191 75.3932L126.378 92.2298Z" fill="#FE7A00"/>
<path d="M23.6723 92.1568L41.8597 75.3202L48.2825 95.0876L23.6723 92.1568Z" fill="#FE7A00"/>
<path d="M126.402 58.8586L108.215 75.6951L101.792 55.9278L126.402 58.8586Z" fill="#FE7A00"/>
<path d="M43.2683 119.169L48.0859 94.8573L64.901 107.074L43.2683 119.169Z" fill="#FE7A00"/>
<path d="M106.806 31.8467L101.989 56.158L85.1735 43.9412L106.806 31.8467Z" fill="#FE7A00"/>
<circle cx="75.0372" cy="75.5077" r="32" stroke="#FE7A00" stroke-width="3"/>
</svg>
