<svg width="151" height="151" viewBox="0 0 151 151" fill="none" xmlns="http://www.w3.org/2000/svg">
<path d="M107.361 66.3104C104.193 66.3104 101.199 67.0565 98.5448 68.3826C98.3144 55.8587 87.9899 45.8104 75.33 45.8104C65.9812 45.8104 57.9061 51.2898 54.2287 59.1992C52.0584 58.3045 49.6707 57.8104 47.1737 57.8104C37.4369 57.8104 29.3612 65.3235 29.3612 74.8104C29.3612 74.8245 29.3612 74.8385 29.3613 74.8526C22.0936 77.0855 16.6112 82.7103 16.6112 89.8104C16.6112 99.0633 25.922 105.81 36.3612 105.81H71.8612H107.361C118.269 105.81 127.111 96.968 127.111 86.0604C127.111 75.1528 118.269 66.3104 107.361 66.3104Z" fill="#D9D9D9" stroke="#8B8B8B" stroke-width="4"/>
<line x1="100.099" y1="84.727" x2="138.715" y2="84.727" stroke="#8B8B8B" stroke-width="4" stroke-linecap="round"/>
<line x1="109.053" y1="91.4155" x2="142.053" y2="91.4155" stroke="#8B8B8B" stroke-width="4" stroke-linecap="round"/>
<line x1="112.715" y1="72.1239" x2="132.715" y2="72.1239" stroke="#8B8B8B" stroke-width="4" stroke-linecap="round"/>
<line x1="106.246" y1="78.1493" x2="144.861" y2="78.1493" stroke="#8B8B8B" stroke-width="4" stroke-linecap="round"/>
<line x1="20.6112" y1="111.423" x2="73.6112" y2="111.423" stroke="#8B8B8B" stroke-width="4" stroke-linecap="round"/>
<line x1="30.6112" y1="117.272" x2="63.6112" y2="117.272" stroke="#8B8B8B" stroke-width="4" stroke-linecap="round"/>
<line x1="36.3113" y1="94.068" x2="56.3113" y2="94.068" stroke="#8B8B8B" stroke-width="4" stroke-linecap="round"/>
<line x1="31.2457" y1="100.169" x2="69.8612" y2="100.169" stroke="#8B8B8B" stroke-width="4" stroke-linecap="round"/>
<line x1="100.407" y1="132.059" x2="117.407" y2="132.059" stroke="#8B8B8B" stroke-width="4" stroke-linecap="round"/>
<line x1="93.869" y1="118.531" x2="113.869" y2="118.531" stroke="#8B8B8B" stroke-width="4" stroke-linecap="round"/>
<line x1="105.869" y1="125.16" x2="119.869" y2="125.16" stroke="#8B8B8B" stroke-width="4" stroke-linecap="round"/>
<line x1="10.3569" y1="45.9354" x2="40.3569" y2="45.9354" stroke="#8B8B8B" stroke-width="4" stroke-linecap="round"/>
<line x1="19.3113" y1="52.6239" x2="56.3113" y2="52.6239" stroke="#8B8B8B" stroke-width="4" stroke-linecap="round"/>
<line x1="27.7659" y1="33.228" x2="38.7659" y2="33.228" stroke="#8B8B8B" stroke-width="4" stroke-linecap="round"/>
<line x1="16.5036" y1="39.3576" x2="66.5036" y2="39.3576" stroke="#8B8B8B" stroke-width="4" stroke-linecap="round"/>
</svg>
