<svg width="151" height="150" viewBox="0 0 151 150" fill="none" xmlns="http://www.w3.org/2000/svg">
<path d="M111.25 65.5C108.082 65.5 105.087 66.2461 102.434 67.5722C102.203 55.0483 91.8787 45 79.2188 45C69.87 45 61.7948 50.4794 58.1175 58.3888C55.9472 57.4941 53.5595 57 51.0625 57C41.3256 57 33.25 64.5131 33.25 74C33.25 74.0141 33.25 74.0282 33.2501 74.0422C25.9823 76.2751 20.5 81.8999 20.5 89C20.5 98.2529 29.8108 105 40.25 105H75.75H111.25C122.158 105 131 96.1576 131 85.25C131 74.3424 122.158 65.5 111.25 65.5Z" fill="#D9D9D9" stroke="#8B8B8B" stroke-width="4"/>
</svg>
