<svg width="151" height="151" viewBox="0 0 151 151" fill="none" xmlns="http://www.w3.org/2000/svg">
<circle cx="86.0372" cy="72.5077" r="27.5" fill="#FFC90C"/>
<path d="M86.0756 18.5119L96.4679 41.0119H75.6833L86.0756 18.5119Z" fill="#FE7A00"/>
<path d="M85.9989 126.503L75.6066 104.003H96.3912L85.9989 126.503Z" fill="#FE7A00"/>
<path d="M54.3304 28.8016L75.9631 40.8961L59.148 53.1129L54.3304 28.8016Z" fill="#FE7A00"/>
<path d="M117.744 116.214L96.1114 104.119L112.926 91.9024L117.744 116.214Z" fill="#FE7A00"/>
<path d="M34.6961 55.7856L59.3062 52.8548L52.8834 72.6221L34.6961 55.7856Z" fill="#FE7A00"/>
<path d="M137.378 89.2298L112.768 92.1606L119.191 72.3932L137.378 89.2298Z" fill="#FE7A00"/>
<path d="M34.6723 89.1568L52.8597 72.3202L59.2825 92.0876L34.6723 89.1568Z" fill="#FE7A00"/>
<path d="M137.402 55.8586L119.215 72.6951L112.792 52.9278L137.402 55.8586Z" fill="#FE7A00"/>
<path d="M54.2683 116.169L59.0859 91.8573L75.901 104.074L54.2683 116.169Z" fill="#FE7A00"/>
<path d="M117.806 28.8467L112.989 53.1581L96.1735 40.9412L117.806 28.8467Z" fill="#FE7A00"/>
<circle cx="86.0372" cy="72.5077" r="32" stroke="#FE7A00" stroke-width="3"/>
<path d="M111.107 84.8222C107.938 84.8222 104.944 85.5683 102.29 86.8944C102.06 74.3705 91.7352 64.3222 79.0753 64.3222C69.7266 64.3222 61.6514 69.8016 57.974 77.711C55.8037 76.8163 53.416 76.3222 50.9191 76.3222C41.1822 76.3222 33.1066 83.8352 33.1066 93.3222C33.1066 93.3363 33.1066 93.3503 33.1066 93.3644C25.8389 95.5973 20.3566 101.222 20.3566 108.322C20.3566 117.575 29.6673 124.322 40.1066 124.322H75.6066H111.107C122.014 124.322 130.857 115.48 130.857 104.572C130.857 93.6646 122.014 84.8222 111.107 84.8222Z" fill="#D9D9D9" stroke="#8B8B8B" stroke-width="4"/>
</svg>
