<svg width="151" height="150" viewBox="0 0 151 150" fill="none" xmlns="http://www.w3.org/2000/svg">
<path d="M111.25 47.5C108.082 47.5 105.087 48.2461 102.434 49.5722C102.203 37.0483 91.8787 27 79.2188 27C69.87 27 61.7948 32.4794 58.1175 40.3888C55.9472 39.4941 53.5595 39 51.0625 39C41.3256 39 33.25 46.5131 33.25 56C33.25 56.0141 33.25 56.0282 33.2501 56.0422C25.9823 58.2751 20.5 63.8999 20.5 71C20.5 80.2529 29.8108 87 40.25 87H75.75H111.25C122.158 87 131 78.1576 131 67.25C131 56.3424 122.158 47.5 111.25 47.5Z" fill="#D9D9D9" stroke="#8B8B8B" stroke-width="4"/>
<line x1="44.6932" y1="92.6485" x2="36.4077" y2="127.741" stroke="#32AED6" stroke-width="3" stroke-linecap="round"/>
<line x1="60.2644" y1="92.6485" x2="51.9788" y2="127.741" stroke="#32AED6" stroke-width="3" stroke-linecap="round"/>
<line x1="49.1807" y1="105.363" x2="40.8951" y2="140.456" stroke="#32AED6" stroke-width="3" stroke-linecap="round"/>
<line x1="95.8939" y1="105.363" x2="87.6084" y2="140.456" stroke="#32AED6" stroke-width="3" stroke-linecap="round"/>
<line x1="64.9402" y1="113.792" x2="59.1955" y2="138.123" stroke="#32AED6" stroke-width="3" stroke-linecap="round"/>
<line x1="91.4065" y1="92.6485" x2="83.1209" y2="127.741" stroke="#32AED6" stroke-width="3" stroke-linecap="round"/>
<line x1="106.977" y1="92.6485" x2="98.6918" y2="127.741" stroke="#32AED6" stroke-width="3" stroke-linecap="round"/>
<path d="M63.8957 109.182C63.5313 110.744 64.5148 105.84 68.2637 90.8439H82.4266L78.1497 99.7478L85.8038 97.8733L71.2207 136.415L72.8386 102.247L63.8957 109.182Z" fill="#FAFF00" stroke="#FFE600" stroke-width="2"/>
</svg>
